<?xml version="1.0" encoding="utf-8"?><svg xmlns="http://www.w3.org/2000/svg" viewBox="0 0 100.18871 77.65205"><defs><style>.a{isolation:isolate;}.b{fill:#ef59e8;}.c{fill:#80307c;}.d{fill:#92368e;}</style></defs><title>autop</title><g class="a"><polygon class="b" points="35.638 74.162 35.637 73.281 36.518 73.281 36.519 74.162 35.638 74.162"/><polygon class="c" points="32.15 77.652 32.149 76.771 35.637 73.281 35.638 74.162 32.15 77.652"/><polygon class="d" points="33.031 77.652 32.15 77.652 35.638 74.162 36.519 74.162 33.031 77.652"/><polygon class="c" points="33.03 76.771 36.518 73.281 36.519 74.162 33.031 77.652 33.03 76.771"/><polygon class="d" points="32.149 76.771 35.637 73.281 36.518 73.281 33.03 76.771 32.149 76.771"/><polygon class="b" points="32.15 77.652 32.149 76.771 33.03 76.771 33.031 77.652 32.15 77.652"/></g><g class="a"><polygon class="b" points="35.255 70.51 35.253 68.873 36.89 68.873 36.892 70.51 35.255 70.51"/><polygon class="c" points="31.768 74 31.766 72.363 35.253 68.873 35.255 70.51 31.768 74"/><polygon class="d" points="33.405 74 31.768 74 35.255 70.51 36.892 70.51 33.405 74"/><polygon class="c" points="33.403 72.363 36.89 68.873 36.892 70.51 33.405 74 33.403 72.363"/><polygon class="d" points="31.766 72.363 35.253 68.873 36.89 68.873 33.403 72.363 31.766 72.363"/><polygon class="b" points="31.768 74 31.766 72.363 33.403 72.363 33.405 74 31.768 74"/></g><g class="a"><polygon class="b" points="39.658 74.162 39.657 73.281 40.539 73.281 40.54 74.162 39.658 74.162"/><polygon class="c" points="36.17 77.652 36.169 76.771 39.657 73.281 39.658 74.162 36.17 77.652"/><polygon class="d" points="37.052 77.652 36.17 77.652 39.658 74.162 40.54 74.162 37.052 77.652"/><polygon class="c" points="37.051 76.771 40.539 73.281 40.54 74.162 37.052 77.652 37.051 76.771"/><polygon class="d" points="36.169 76.771 39.657 73.281 40.539 73.281 37.051 76.771 36.169 76.771"/><polygon class="b" points="36.17 77.652 36.169 76.771 37.051 76.771 37.052 77.652 36.17 77.652"/></g><g class="a"><polygon class="b" points="35.627 65.222 36.508 65.222 36.509 66.103 35.628 66.103 35.627 65.222"/><polygon class="c" points="32.14 69.593 32.139 68.711 35.627 65.222 35.628 66.103 32.14 69.593"/><polygon class="d" points="33.021 69.593 32.14 69.593 35.628 66.103 36.509 66.103 33.021 69.593"/><polygon class="c" points="33.02 68.711 36.508 65.222 36.509 66.103 33.021 69.593 33.02 68.711"/><polygon class="d" points="32.139 68.711 35.627 65.222 36.508 65.222 33.02 68.711 32.139 68.711"/><polygon class="b" points="32.139 68.711 33.02 68.711 33.021 69.593 32.14 69.593 32.139 68.711"/></g><g class="a"><polygon class="b" points="38.144 71.77 38.139 67.74 42.169 67.74 42.174 71.77 38.144 71.77"/><polygon class="c" points="34.656 75.26 34.651 71.23 38.139 67.74 38.144 71.77 34.656 75.26"/><polygon class="d" points="38.686 75.26 34.656 75.26 38.144 71.77 42.174 71.77 38.686 75.26"/><polygon class="c" points="38.681 71.23 42.169 67.74 42.174 71.77 38.686 75.26 38.681 71.23"/><polygon class="d" points="34.651 71.23 38.139 67.74 42.169 67.74 38.681 71.23 34.651 71.23"/><polygon class="b" points="34.656 75.26 34.651 71.23 38.681 71.23 38.686 75.26 34.656 75.26"/></g><g class="a"><polygon class="b" points="39.269 64.844 40.906 64.844 40.908 66.481 39.271 66.481 39.269 64.844"/><polygon class="c" points="35.783 69.971 35.781 68.334 39.269 64.844 39.271 66.481 35.783 69.971"/><polygon class="d" points="37.42 69.971 35.783 69.971 39.271 66.481 40.908 66.481 37.42 69.971"/><polygon class="c" points="37.418 68.334 40.906 64.844 40.908 66.481 37.42 69.971 37.418 68.334"/><polygon class="d" points="35.781 68.334 39.269 64.844 40.906 64.844 37.418 68.334 35.781 68.334"/><polygon class="b" points="35.781 68.334 37.418 68.334 37.42 69.971 35.783 69.971 35.781 68.334"/></g><g class="a"><polygon class="b" points="41.276 58.799 38.884 58.799 38.881 56.407 41.274 56.407 41.276 58.799"/><polygon class="b" points="36.49 49.994 35.608 49.994 35.607 49.112 36.489 49.112 36.49 49.994"/><polygon class="b" points="36.861 44.705 36.863 46.342 35.226 46.342 35.224 44.705 36.861 44.705"/><path class="b" d="M66.15091,30.47369h4.02955L70.205,50.62141H66.17547l.00491,4.02954H62.15084l.00491,4.02955H42.008l.01963,16.10918H37.99812l.00491,4.02954h4.02954l.00491,4.02957H33.98739l-.01472-12.07966h4.02055l-.00983-8.05906H33.96285l-.0491-40.28647H62.11156l.0049,4.02057H66.146ZM62.141,46.59187l-.01473-12.08863H58.09674l-.00491-4.02955H41.97365l.02456,20.14772H58.11638l-.00491-4.02954H62.141" transform="translate(0.12638 -19.1383)"/><polygon class="d" points="38.676 67.2 30.626 67.2 34.114 63.71 42.164 63.71 38.676 67.2"/><polygon class="c" points="30.626 67.2 30.611 55.121 34.099 51.631 34.114 63.71 30.626 67.2"/><polygon class="c" points="34.637 59.141 38.124 55.651 38.129 59.681 34.642 63.171 34.637 59.141"/><polygon class="c" points="35.396 62.289 35.393 59.897 38.881 56.407 38.884 58.799 35.396 62.289"/><polygon class="d" points="34.642 63.171 38.129 59.681 42.159 59.681 38.671 63.171 34.642 63.171"/><polygon class="d" points="37.789 62.289 35.396 62.289 38.884 58.799 41.276 58.799 37.789 62.289"/><polygon class="c" points="38.671 63.171 42.159 59.681 42.164 63.71 38.676 67.2 38.671 63.171"/><polygon class="c" points="37.786 59.897 41.274 56.407 41.276 58.799 37.789 62.289 37.786 59.897"/><polygon class="b" points="37.789 62.289 35.396 62.289 35.393 59.897 37.786 59.897 37.789 62.289"/><polygon class="d" points="35.393 59.897 38.881 56.407 41.274 56.407 37.786 59.897 35.393 59.897"/><polygon class="d" points="30.611 55.121 34.099 51.631 38.12 51.631 34.632 55.121 30.611 55.121"/><polygon class="c" points="32.12 53.484 32.119 52.602 35.607 49.112 35.608 49.994 32.12 53.484"/><polygon class="d" points="33.002 53.484 32.12 53.484 35.608 49.994 36.49 49.994 33.002 53.484"/><polygon class="d" points="38.666 59.141 34.637 59.141 38.124 55.651 42.154 55.651 38.666 59.141"/><polygon class="b" points="33.002 53.484 32.12 53.484 32.119 52.602 33.001 52.602 33.002 53.484"/><polygon class="d" points="32.119 52.602 35.607 49.112 36.489 49.112 33.001 52.602 32.119 52.602"/><polygon class="c" points="33.001 52.602 36.489 49.112 36.49 49.994 33.002 53.484 33.001 52.602"/><polygon class="c" points="31.738 49.832 31.736 48.195 35.224 44.705 35.226 46.342 31.738 49.832"/><polygon class="d" points="33.375 49.832 31.738 49.832 35.226 46.342 36.863 46.342 33.375 49.832"/><polygon class="d" points="31.736 48.195 35.224 44.705 36.861 44.705 33.373 48.195 31.736 48.195"/><polygon class="c" points="33.373 48.195 36.861 44.705 36.863 46.342 33.375 49.832 33.373 48.195"/><polygon class="b" points="33.373 48.195 33.375 49.832 31.738 49.832 31.736 48.195 33.373 48.195"/><polygon class="c" points="34.632 55.121 34.622 47.062 38.11 43.572 38.12 51.631 34.632 55.121"/><polygon class="d" points="34.622 47.062 30.601 47.062 34.089 43.572 38.11 43.572 34.622 47.062"/><polygon class="c" points="38.647 43.032 42.134 39.542 42.154 55.651 38.666 59.141 38.647 43.032"/><polygon class="d" points="58.794 43.032 38.647 43.032 42.134 39.542 62.282 39.542 58.794 43.032"/><polygon class="d" points="38.637 34.973 42.125 31.483 58.243 31.483 54.755 34.973 38.637 34.973"/><polygon class="c" points="58.789 39.003 62.277 35.513 62.282 39.542 58.794 43.032 58.789 39.003"/><polygon class="c" points="30.601 47.062 30.552 6.775 34.04 3.285 34.089 43.572 30.601 47.062"/><polygon class="c" points="38.612 14.825 42.1 11.335 42.125 31.483 38.637 34.973 38.612 14.825"/><polygon class="c" points="54.755 34.973 54.75 30.944 58.238 27.454 58.243 31.483 54.755 34.973"/><polygon class="d" points="62.819 39.003 58.789 39.003 62.277 35.513 66.307 35.513 62.819 39.003"/><polygon class="d" points="54.75 30.944 58.238 27.454 62.267 27.454 58.78 30.944 54.75 30.944"/><polygon class="c" points="62.814 34.973 66.302 31.483 66.307 35.513 62.819 39.003 62.814 34.973"/><polygon class="d" points="66.844 34.973 62.814 34.973 66.302 31.483 70.331 31.483 66.844 34.973"/><polygon class="c" points="54.735 18.855 54.73 14.825 58.218 11.335 58.223 15.365 54.735 18.855"/><polygon class="d" points="54.73 14.825 38.612 14.825 42.1 11.335 58.218 11.335 54.73 14.825"/><polygon class="c" points="58.78 30.944 58.765 18.855 62.253 15.365 62.267 27.454 58.78 30.944"/><polygon class="d" points="58.765 18.855 54.735 18.855 58.223 15.365 62.253 15.365 58.765 18.855"/><polygon class="c" points="58.75 6.775 62.238 3.285 62.243 7.306 58.755 10.796 58.75 6.775"/><polygon class="d" points="30.552 6.775 34.04 3.285 62.238 3.285 58.75 6.775 30.552 6.775"/><polygon class="c" points="62.785 10.796 66.272 7.306 66.277 11.335 62.789 14.825 62.785 10.796"/><polygon class="d" points="58.755 10.796 62.243 7.306 66.272 7.306 62.785 10.796 58.755 10.796"/><polygon class="c" points="66.819 14.825 70.307 11.335 70.331 31.483 66.844 34.973 66.819 14.825"/><polygon class="d" points="62.789 14.825 66.277 11.335 70.307 11.335 66.819 14.825 62.789 14.825"/><path class="b" d="M62.66309,33.96364h4.02954l.02456,20.14772H62.68765l.00491,4.02955H58.663l.00491,4.02954H38.5202l.01964,16.10918H34.51029l.00491,4.02955h4.02955l.00491,4.02956H30.49957l-.01473-12.07966h4.02055L34.49557,66.2H30.475l-.0491-40.28647H58.62374l.0049,4.02058h4.02954Zm-4.0099,16.11818-.01473-12.08863H54.60891L54.604,33.96364H38.48583l.02455,20.14772H54.62856l-.00491-4.02954h4.02954" transform="translate(0.12638 -19.1383)"/></g><g class="a"><polygon class="b" points="3.488 16.118 11.547 16.118 11.557 24.177 3.498 24.177 3.488 16.118"/><polygon class="c" points="0.01 27.667 0 19.608 3.488 16.118 3.498 24.177 0.01 27.667"/><polygon class="d" points="8.069 27.667 0.01 27.667 3.498 24.177 11.557 24.177 8.069 27.667"/><polygon class="c" points="8.059 19.608 11.547 16.118 11.557 24.177 8.069 27.667 8.059 19.608"/><polygon class="d" points="0 19.608 3.488 16.118 11.547 16.118 8.059 19.608 0 19.608"/><polygon class="b" points="0 19.608 8.059 19.608 8.069 27.667 0.01 27.667 0 19.608"/></g><g class="a"><polygon class="b" points="19.596 8.059 19.606 16.118 11.547 16.118 11.537 8.059 19.596 8.059"/><polygon class="c" points="8.059 19.608 8.049 11.549 11.537 8.059 11.547 16.118 8.059 19.608"/><polygon class="d" points="16.118 19.608 8.059 19.608 11.547 16.118 19.606 16.118 16.118 19.608"/><polygon class="c" points="16.108 11.549 19.596 8.059 19.606 16.118 16.118 19.608 16.108 11.549"/><polygon class="d" points="8.049 11.549 11.537 8.059 19.596 8.059 16.108 11.549 8.049 11.549"/><polygon class="b" points="16.108 11.549 16.118 19.608 8.059 19.608 8.049 11.549 16.108 11.549"/></g><g class="a"><polygon class="b" points="27.645 0 27.655 8.059 19.596 8.059 19.586 0 27.645 0"/><polygon class="c" points="16.108 11.549 16.099 3.49 19.586 0 19.596 8.059 16.108 11.549"/><polygon class="d" points="24.167 11.549 16.108 11.549 19.596 8.059 27.655 8.059 24.167 11.549"/><polygon class="c" points="24.158 3.49 27.645 0 27.655 8.059 24.167 11.549 24.158 3.49"/><polygon class="d" points="16.099 3.49 19.586 0 27.645 0 24.158 3.49 16.099 3.49"/><polygon class="b" points="24.158 3.49 24.167 11.549 16.108 11.549 16.099 3.49 24.158 3.49"/></g><g class="a"><polygon class="b" points="19.626 32.236 11.567 32.236 11.557 24.177 19.616 24.177 19.626 32.236"/><polygon class="c" points="8.079 35.726 8.069 27.667 11.557 24.177 11.567 32.236 8.079 35.726"/><polygon class="d" points="16.138 35.726 8.079 35.726 11.567 32.236 19.626 32.236 16.138 35.726"/><polygon class="d" points="8.069 27.667 11.557 24.177 19.616 24.177 16.128 27.667 8.069 27.667"/><polygon class="c" points="16.128 27.667 19.616 24.177 19.626 32.236 16.138 35.726 16.128 27.667"/><polygon class="b" points="16.138 35.726 8.079 35.726 8.069 27.667 16.128 27.667 16.138 35.726"/></g><g class="a"><polygon class="b" points="27.695 40.295 19.635 40.295 19.626 32.236 27.685 32.236 27.695 40.295"/><polygon class="c" points="16.148 43.785 16.138 35.726 19.626 32.236 19.635 40.295 16.148 43.785"/><polygon class="d" points="24.207 43.785 16.148 43.785 19.635 40.295 27.695 40.295 24.207 43.785"/><polygon class="d" points="16.138 35.726 19.626 32.236 27.685 32.236 24.197 35.726 16.138 35.726"/><polygon class="c" points="24.197 35.726 27.685 32.236 27.695 40.295 24.207 43.785 24.197 35.726"/><polygon class="b" points="24.207 43.785 16.148 43.785 16.138 35.726 24.197 35.726 24.207 43.785"/></g><g class="a"><polygon class="b" points="84.051 8.059 92.11 8.059 92.12 16.118 84.061 16.118 84.051 8.059"/><polygon class="c" points="80.573 19.608 80.563 11.549 84.051 8.059 84.061 16.118 80.573 19.608"/><polygon class="d" points="88.632 19.608 80.573 19.608 84.061 16.118 92.12 16.118 88.632 19.608"/><polygon class="c" points="88.622 11.549 92.11 8.059 92.12 16.118 88.632 19.608 88.622 11.549"/><polygon class="d" points="80.563 11.549 84.051 8.059 92.11 8.059 88.622 11.549 80.563 11.549"/><polygon class="b" points="80.563 11.549 88.622 11.549 88.632 19.608 80.573 19.608 80.563 11.549"/></g><g class="a"><polygon class="b" points="76.04 40.295 76.03 32.236 84.08 32.236 84.09 40.295 76.04 40.295"/><polygon class="d" points="80.602 43.785 72.552 43.785 76.04 40.295 84.09 40.295 80.602 43.785"/><polygon class="c" points="72.552 43.785 72.542 35.726 76.03 32.236 76.04 40.295 72.552 43.785"/><polygon class="c" points="80.593 35.726 84.08 32.236 84.09 40.295 80.602 43.785 80.593 35.726"/><polygon class="d" points="72.542 35.726 76.03 32.236 84.08 32.236 80.593 35.726 72.542 35.726"/><polygon class="b" points="72.552 43.785 72.542 35.726 80.593 35.726 80.602 43.785 72.552 43.785"/></g><g class="a"><polygon class="b" points="84.08 32.236 84.071 24.177 92.13 24.177 92.139 32.236 84.08 32.236"/><polygon class="c" points="80.593 35.726 80.583 27.667 84.071 24.177 84.08 32.236 80.593 35.726"/><polygon class="d" points="88.652 35.726 80.593 35.726 84.08 32.236 92.139 32.236 88.652 35.726"/><polygon class="c" points="88.642 27.667 92.13 24.177 92.139 32.236 88.652 35.726 88.642 27.667"/><polygon class="d" points="80.583 27.667 84.071 24.177 92.13 24.177 88.642 27.667 80.583 27.667"/><polygon class="b" points="80.593 35.726 80.583 27.667 88.642 27.667 88.652 35.726 80.593 35.726"/></g><g class="a"><polygon class="b" points="92.12 16.118 100.179 16.118 100.189 24.177 92.13 24.177 92.12 16.118"/><polygon class="c" points="88.642 27.667 88.632 19.608 92.12 16.118 92.13 24.177 88.642 27.667"/><polygon class="d" points="96.701 27.667 88.642 27.667 92.13 24.177 100.189 24.177 96.701 27.667"/><polygon class="c" points="96.691 19.608 100.179 16.118 100.189 24.177 96.701 27.667 96.691 19.608"/><polygon class="d" points="88.632 19.608 92.12 16.118 100.179 16.118 96.691 19.608 88.632 19.608"/><polygon class="b" points="88.632 19.608 96.691 19.608 96.701 27.667 88.642 27.667 88.632 19.608"/></g><g class="a"><polygon class="b" points="75.991 0 84.041 0 84.051 8.059 76.001 8.059 75.991 0"/><polygon class="d" points="80.563 11.549 72.513 11.549 76.001 8.059 84.051 8.059 80.563 11.549"/><polygon class="c" points="72.513 11.549 72.503 3.49 75.991 0 76.001 8.059 72.513 11.549"/><polygon class="c" points="80.553 3.49 84.041 0 84.051 8.059 80.563 11.549 80.553 3.49"/><polygon class="d" points="72.503 3.49 75.991 0 84.041 0 80.553 3.49 72.503 3.49"/><polygon class="b" points="72.503 3.49 80.553 3.49 80.563 11.549 72.513 11.549 72.503 3.49"/></g></svg>